<?xml version="1.0" encoding="UTF-8"?>
<svg width="35px" height="35px" viewBox="0 0 35 35" version="1.1" xmlns="http://www.w3.org/2000/svg" xmlns:xlink="http://www.w3.org/1999/xlink">
    <!-- Generator: Sketch 63.1 (92452) - https://sketch.com -->
    <title>Logo</title>
    <desc>Created with Sketch.</desc>
    <g id="Page-1" stroke="none" stroke-width="1" fill="none" fill-rule="evenodd">
        <g id="Icons" transform="translate(-37.000000, -42.000000)" stroke="#979797" stroke-width="2">
            <path d="M70.9522301,60.3670913 L40.0244471,67.4257102 C41.3515978,69.8442519 43.2672414,71.894041 45.5784547,73.3825857 C48.1506441,75.039213 51.2131531,76 54.5,76 C59.0745734,76 63.214337,74.137797 66.2014288,71.0822142 C68.9023966,68.3193158 70.6595519,64.5824547 70.9522301,60.3670913 Z M54.5,43 C49.9436508,43 45.8186508,44.8468254 42.8327381,47.8327381 C39.8468254,50.8186508 38,54.9436508 38,59.5 C38,60.724347 38.133229,61.9175726 38.386127,63.0659219 L67.5356617,49.3832636 C64.5167357,45.4992684 59.8003114,43 54.5,43 Z" id="Logo"></path>
        </g>
    </g>
</svg>