<?xml version="1.0" encoding="UTF-8"?>
<svg width="66px" height="58px" viewBox="0 0 66 58" version="1.1" xmlns="http://www.w3.org/2000/svg" xmlns:xlink="http://www.w3.org/1999/xlink">
    <!-- Generator: Sketch 63.1 (92452) - https://sketch.com -->
    <title>Delete</title>
    <desc>Created with Sketch.</desc>
    <g id="Page-1" stroke="none" stroke-width="1" fill="none" fill-rule="evenodd">
        <g id="Icons" transform="translate(-328.000000, -29.000000)" stroke="#979797" stroke-width="2">
            <g id="Delete" transform="translate(330.000000, 31.000000)">
                <polygon id="Path-6" fill="#FFFEFE" points="21.8604377 7.50649393 0 20.4797309 4.832884 26.9879762 2.26072855 29.475066 7.91399173 36.3711532 5.57853768 41.8665247 21.8604377 54.5550234 44.0851506 52.5947649 54.9654048 38.8611265 62.4800204 36.3711532 59.9648442 31.2100817 53.3776912 30.2257161 58.152937 25.3616016 58.152937 14.7056216 51.1009163 13.3283528 43.1808832 2.56398791 29.7543047 3.90798505e-14 28.7190383 9.53076873"></polygon>
                <polyline id="Path-7" points="4.832884 26.9879762 13.180707 37.9100916 22.6529603 41.1924345 17.6948771 32.6042133 31.2400102 22.3271831 38.0411035 12.3743402 28.7190383 9.53076873"></polyline>
                <polyline id="Path-8" points="9.02529289 23.7461873 10.8300335 19.2644781 21.4369937 14.092659 27.4630724 14.7127882"></polyline>
                <line x1="7.91399173" y1="36.3711532" x2="22.2494064" y2="54.9021843" id="Path-9"></line>
                <polygon id="Path-10" points="23.2574915 41.8534561 37.3016699 41.1924345 37.3016699 39.1714286 44.0851506 40.6397564 44.0851506 38.9340848 44.0851506 29.9247152 31.2400102 22.3271831 17.6948771 32.6042133"></polygon>
                <polyline id="Path-11" points="54.9654048 38.8611265 47.4808959 41.1924345 44.0851506 40.0267805"></polyline>
                <line x1="31.2400102" y1="41.1924345" x2="33.7908361" y2="36.3711532" id="Path-12"></line>
                <path d="" id="Path-13"></path>
                <polyline id="Path-14" points="56.7710309 31.1940621 56.7710309 33.323833 61.3956523 34.4021843"></polyline>
                <line x1="51.1009163" y1="13.3283528" x2="38.7809586" y2="26.5087346" id="Path-15"></line>
                <path d="" id="Path-16"></path>
                <line x1="48.3978103" y1="10.0700212" x2="45.2494064" y2="17.9021843" id="Path-17"></line>
                <polyline id="Path-18" points="47.8978103 18.9194231 51.1009163 21.0494049 50.4306202 29.9133328"></polyline>
                <polyline id="Path-19" points="36.369579 44.025384 27.4630724 50.0757547 38.7809586 50.0757547"></polyline>
                <line x1="19.2374013" y1="45.0249262" x2="25.0580164" y2="45.0249262" id="Path-20"></line>
            </g>
        </g>
    </g>
</svg>